<svg width="24" height="24" viewBox="0 0 24 24" fill="none" xmlns="http://www.w3.org/2000/svg">
<g id="logout">
<mask id="mask0_540_1096" style="mask-type:alpha" maskUnits="userSpaceOnUse" x="0" y="0" width="24" height="24">
<rect id="Bounding box" width="24" height="24" fill="#D9D9D9"/>
</mask>
<g mask="url(#mask0_540_1096)">
<path id="logout_2" d="M5.39998 20.4C4.90498 20.4 4.48123 20.2237 4.12873 19.8712C3.77623 19.5187 3.59998 19.095 3.59998 18.6V5.39998C3.59998 4.90498 3.77623 4.48123 4.12873 4.12873C4.48123 3.77623 4.90498 3.59998 5.39998 3.59998H11.1C11.355 3.59998 11.5687 3.68572 11.7412 3.8572C11.9137 4.0287 12 4.2412 12 4.4947C12 4.74822 11.9137 4.96248 11.7412 5.13748C11.5687 5.31248 11.355 5.39998 11.1 5.39998H5.39998V18.6H11.1C11.355 18.6 11.5687 18.6857 11.7412 18.8572C11.9137 19.0287 12 19.2412 12 19.4947C12 19.7482 11.9137 19.9625 11.7412 20.1375C11.5687 20.3125 11.355 20.4 11.1 20.4H5.39998ZM16.95 12.9H10.4991C10.2443 12.9 10.0308 12.8142 9.85845 12.6427C9.68613 12.4713 9.59998 12.2587 9.59998 12.0052C9.59998 11.7517 9.68613 11.5375 9.85845 11.3625C10.0308 11.1875 10.2443 11.1 10.4991 11.1H16.95L15.55 9.69998C15.3666 9.51664 15.275 9.30355 15.275 9.0607C15.275 8.81783 15.3666 8.60533 15.55 8.4232C15.7333 8.24105 15.9458 8.14998 16.1875 8.14998C16.4291 8.14998 16.6416 8.24164 16.825 8.42498L19.775 11.375C19.9583 11.5522 20.05 11.7591 20.05 11.9954C20.05 12.2318 19.9583 12.4416 19.775 12.625L16.825 15.575C16.6416 15.7583 16.4333 15.8458 16.2 15.8375C15.9666 15.8291 15.7543 15.7333 15.563 15.55C15.3877 15.3666 15.3 15.1541 15.3 14.9125C15.3 14.6708 15.3916 14.4583 15.575 14.275L16.95 12.9Z" fill="#1C1B1E"/>
</g>
</g>
</svg>
