<svg width="24" height="24" viewBox="0 0 24 24" fill="none" xmlns="http://www.w3.org/2000/svg">
<g id="icons">
<mask id="mask0_536_725" style="mask-type:alpha" maskUnits="userSpaceOnUse" x="0" y="0" width="24" height="24">
<rect id="Bounding box" width="24" height="24" fill="#D9D9D9"/>
</mask>
<g mask="url(#mask0_536_725)">
<path id="calendar_month" d="M5.4001 21.6C4.9051 21.6 4.48135 21.4209 4.12885 21.0625C3.77635 20.7042 3.6001 20.2834 3.6001 19.8V6.60002C3.6001 6.11669 3.77635 5.69586 4.12885 5.33752C4.48135 4.97919 4.9051 4.80002 5.4001 4.80002H7.2001V3.30002C7.2001 3.04502 7.28584 2.83127 7.45732 2.65877C7.62882 2.48627 7.84132 2.40002 8.09482 2.40002C8.34834 2.40002 8.5626 2.48627 8.7376 2.65877C8.9126 2.83127 9.0001 3.04502 9.0001 3.30002V4.80002H15.0001V3.30002C15.0001 3.04502 15.0858 2.83127 15.2573 2.65877C15.4288 2.48627 15.6413 2.40002 15.8948 2.40002C16.1483 2.40002 16.3626 2.48627 16.5376 2.65877C16.7126 2.83127 16.8001 3.04502 16.8001 3.30002V4.80002H18.6001C19.0951 4.80002 19.5188 4.97919 19.8713 5.33752C20.2238 5.69586 20.4001 6.11669 20.4001 6.60002V19.8C20.4001 20.2834 20.2238 20.7042 19.8713 21.0625C19.5188 21.4209 19.0951 21.6 18.6001 21.6H5.4001ZM5.4001 19.8H18.6001V10.8H5.4001V19.8ZM12.0054 14.4C11.7519 14.4 11.5376 14.3143 11.3626 14.1428C11.1876 13.9713 11.1001 13.7588 11.1001 13.5053C11.1001 13.2518 11.1858 13.0375 11.3573 12.8625C11.5288 12.6875 11.7413 12.6 11.9948 12.6C12.2483 12.6 12.4626 12.6858 12.6376 12.8573C12.8126 13.0288 12.9001 13.2413 12.9001 13.4948C12.9001 13.7483 12.8144 13.9625 12.6429 14.1375C12.4714 14.3125 12.2589 14.4 12.0054 14.4ZM8.10537 14.4C7.85186 14.4 7.6376 14.3143 7.4626 14.1428C7.2876 13.9713 7.2001 13.7588 7.2001 13.5053C7.2001 13.2518 7.28584 13.0375 7.45732 12.8625C7.62882 12.6875 7.84132 12.6 8.09482 12.6C8.34834 12.6 8.5626 12.6858 8.7376 12.8573C8.9126 13.0288 9.0001 13.2413 9.0001 13.4948C9.0001 13.7483 8.91436 13.9625 8.74287 14.1375C8.57137 14.3125 8.35887 14.4 8.10537 14.4ZM15.9054 14.4C15.6519 14.4 15.4376 14.3143 15.2626 14.1428C15.0876 13.9713 15.0001 13.7588 15.0001 13.5053C15.0001 13.2518 15.0858 13.0375 15.2573 12.8625C15.4288 12.6875 15.6413 12.6 15.8948 12.6C16.1483 12.6 16.3626 12.6858 16.5376 12.8573C16.7126 13.0288 16.8001 13.2413 16.8001 13.4948C16.8001 13.7483 16.7144 13.9625 16.5429 14.1375C16.3714 14.3125 16.1589 14.4 15.9054 14.4ZM12.0054 18C11.7519 18 11.5376 17.9143 11.3626 17.7428C11.1876 17.5713 11.1001 17.3588 11.1001 17.1053C11.1001 16.8518 11.1858 16.6375 11.3573 16.4625C11.5288 16.2875 11.7413 16.2 11.9948 16.2C12.2483 16.2 12.4626 16.2858 12.6376 16.4573C12.8126 16.6288 12.9001 16.8413 12.9001 17.0948C12.9001 17.3483 12.8144 17.5625 12.6429 17.7375C12.4714 17.9125 12.2589 18 12.0054 18ZM8.10537 18C7.85186 18 7.6376 17.9143 7.4626 17.7428C7.2876 17.5713 7.2001 17.3588 7.2001 17.1053C7.2001 16.8518 7.28584 16.6375 7.45732 16.4625C7.62882 16.2875 7.84132 16.2 8.09482 16.2C8.34834 16.2 8.5626 16.2858 8.7376 16.4573C8.9126 16.6288 9.0001 16.8413 9.0001 17.0948C9.0001 17.3483 8.91436 17.5625 8.74287 17.7375C8.57137 17.9125 8.35887 18 8.10537 18ZM15.9054 18C15.6519 18 15.4376 17.9143 15.2626 17.7428C15.0876 17.5713 15.0001 17.3588 15.0001 17.1053C15.0001 16.8518 15.0858 16.6375 15.2573 16.4625C15.4288 16.2875 15.6413 16.2 15.8948 16.2C16.1483 16.2 16.3626 16.2858 16.5376 16.4573C16.7126 16.6288 16.8001 16.8413 16.8001 17.0948C16.8001 17.3483 16.7144 17.5625 16.5429 17.7375C16.3714 17.9125 16.1589 18 15.9054 18Z" fill="#332D41"/>
</g>
</g>
</svg>
