<svg width="24" height="24" viewBox="0 0 24 24" fill="none" xmlns="http://www.w3.org/2000/svg">
<g id="icons">
<mask id="mask0_536_1071" style="mask-type:alpha" maskUnits="userSpaceOnUse" x="0" y="0" width="24" height="24">
<rect id="Bounding box" width="24" height="24" fill="#D9D9D9"/>
</mask>
<g mask="url(#mask0_536_1071)">
<path id="pets" d="M4.80553 12C4.13511 12 3.56657 11.7685 3.0999 11.3056C2.63324 10.8427 2.3999 10.276 2.3999 9.6056C2.3999 8.93518 2.63136 8.36664 3.09428 7.89998C3.55718 7.43331 4.12384 7.19998 4.79428 7.19998C5.46469 7.19998 6.03324 7.43143 6.4999 7.89435C6.96657 8.35725 7.1999 8.92392 7.1999 9.59435C7.1999 10.2648 6.96844 10.8333 6.50553 11.3C6.04263 11.7666 5.47596 12 4.80553 12ZM9.00553 8.39998C8.33511 8.39998 7.76657 8.16852 7.2999 7.7056C6.83324 7.2427 6.5999 6.67603 6.5999 6.0056C6.5999 5.33518 6.83136 4.76664 7.29428 4.29998C7.75718 3.83331 8.32384 3.59998 8.99428 3.59998C9.66469 3.59998 10.2332 3.83143 10.6999 4.29435C11.1666 4.75725 11.3999 5.32392 11.3999 5.99435C11.3999 6.66477 11.1684 7.23331 10.7055 7.69998C10.2426 8.16664 9.67596 8.39998 9.00553 8.39998ZM15.0055 8.39998C14.3351 8.39998 13.7666 8.16852 13.2999 7.7056C12.8332 7.2427 12.5999 6.67603 12.5999 6.0056C12.5999 5.33518 12.8314 4.76664 13.2943 4.29998C13.7572 3.83331 14.3238 3.59998 14.9943 3.59998C15.6647 3.59998 16.2332 3.83143 16.6999 4.29435C17.1666 4.75725 17.3999 5.32392 17.3999 5.99435C17.3999 6.66477 17.1684 7.23331 16.7055 7.69998C16.2426 8.16664 15.676 8.39998 15.0055 8.39998ZM19.2055 12C18.5351 12 17.9666 11.7685 17.4999 11.3056C17.0332 10.8427 16.7999 10.276 16.7999 9.6056C16.7999 8.93518 17.0314 8.36664 17.4943 7.89998C17.9572 7.43331 18.5238 7.19998 19.1943 7.19998C19.8647 7.19998 20.4332 7.43143 20.8999 7.89435C21.3666 8.35725 21.5999 8.92392 21.5999 9.59435C21.5999 10.2648 21.3684 10.8333 20.9055 11.3C20.4426 11.7666 19.876 12 19.2055 12ZM7.1249 21.625C6.49157 21.625 5.9499 21.3666 5.4999 20.85C5.0499 20.3333 4.8249 19.7 4.8249 18.95C4.8249 18.1666 5.09157 17.4916 5.6249 16.925C6.15824 16.3583 6.68324 15.7833 7.1999 15.2C7.63324 14.7 8.01657 14.1916 8.3499 13.675C8.68324 13.1583 9.04157 12.6416 9.4249 12.125C9.75824 11.6916 10.1374 11.3625 10.5624 11.1375C10.9874 10.9125 11.4666 10.8 11.9999 10.8C12.5332 10.8 13.0166 10.9083 13.4499 11.125C13.8832 11.3416 14.2582 11.6666 14.5749 12.1C14.9582 12.6166 15.3166 13.1291 15.6499 13.6375C15.9832 14.1458 16.3666 14.6583 16.7999 15.175C17.2999 15.775 17.8249 16.3541 18.3749 16.9125C18.9249 17.4708 19.1999 18.1527 19.1999 18.9581C19.1999 19.686 18.9707 20.3083 18.5124 20.825C18.0541 21.3416 17.4999 21.6 16.8499 21.6C16.0166 21.6 15.2082 21.5 14.4249 21.3C13.6416 21.1 12.8332 21 11.9999 21C11.1666 21 10.3541 21.1041 9.5624 21.3125C8.77074 21.5208 7.95824 21.625 7.1249 21.625Z" fill="#1C1B1E"/>
</g>
</g>
</svg>
