<svg width="24" height="24" viewBox="0 0 24 24" fill="none" xmlns="http://www.w3.org/2000/svg">
<g id="icons">
<mask id="mask0_536_139" style="mask-type:alpha" maskUnits="userSpaceOnUse" x="0" y="0" width="24" height="24">
<rect id="Bounding box" width="24" height="24" fill="#D9D9D9"/>
</mask>
<g mask="url(#mask0_536_139)">
<path id="dashboard" d="M14.0854 8.39998C13.8285 8.39998 13.6168 8.31373 13.4501 8.14123C13.2834 7.96873 13.2001 7.75498 13.2001 7.49998V4.47498C13.2001 4.22706 13.2839 4.01924 13.4516 3.85153C13.6194 3.68383 13.8272 3.59998 14.0751 3.59998H19.5148C19.7717 3.59998 19.9834 3.68383 20.1501 3.85153C20.3168 4.01924 20.4001 4.22706 20.4001 4.47498V7.49998C20.4001 7.75498 20.3162 7.96873 20.1485 8.14123C19.9808 8.31373 19.773 8.39998 19.5251 8.39998H14.0854ZM4.50367 13.2C4.24766 13.2 4.03306 13.1125 3.85987 12.9375C3.68669 12.7625 3.6001 12.5583 3.6001 12.325V4.47498C3.6001 4.22706 3.68669 4.01924 3.85987 3.85153C4.03306 3.68383 4.24766 3.59998 4.50367 3.59998H9.9251C10.1584 3.59998 10.3626 3.68383 10.5376 3.85153C10.7126 4.01924 10.8001 4.22706 10.8001 4.47498V12.325C10.8001 12.5583 10.7126 12.7625 10.5376 12.9375C10.3626 13.1125 10.1584 13.2 9.9251 13.2H4.50367ZM14.0854 20.4C13.8285 20.4 13.6168 20.3137 13.4501 20.1412C13.2834 19.9687 13.2001 19.755 13.2001 19.5V11.7C13.2001 11.445 13.2839 11.2312 13.4516 11.0587C13.6194 10.8862 13.8272 10.8 14.0751 10.8H19.5148C19.7717 10.8 19.9834 10.8862 20.1501 11.0587C20.3168 11.2312 20.4001 11.445 20.4001 11.7V19.5C20.4001 19.755 20.3162 19.9687 20.1485 20.1412C19.9808 20.3137 19.773 20.4 19.5251 20.4H14.0854ZM4.50367 20.4C4.24766 20.4 4.03306 20.3137 3.85987 20.1412C3.68669 19.9687 3.6001 19.755 3.6001 19.5V16.45C3.6001 16.2021 3.68669 15.9942 3.85987 15.8265C4.03306 15.6588 4.24766 15.575 4.50367 15.575H9.9251C10.1584 15.575 10.3626 15.6588 10.5376 15.8265C10.7126 15.9942 10.8001 16.2021 10.8001 16.45V19.5C10.8001 19.755 10.7126 19.9687 10.5376 20.1412C10.3626 20.3137 10.1584 20.4 9.9251 20.4H4.50367Z" fill="white"/>
</g>
</g>
</svg>
